# xmcd CD database file
# Copyright (C) 1993-1998 Ti Kan
#
# Track frame offsets:
#	150
#	20577
#	41397
#	59157
#	80002
#	98125
#	114605
#	132635
#	150182
#	168180
#	182955
#	198330
#	213462
#	231595
#	249092
#	269445
#	288872
#	308327
#
# Disc length: 4375 seconds
#
# Revision: 1
# Processed by: cddbd v1.4b41PL1 Copyright (c) Steve Scherf et al.
# Submitted via: CDValet v3.31 - Copyright (c) 1997 Greg Leichner
#
DISCID=fa111512
DTITLE=No Mercy - My Promise
DYEAR=1900
DGENRE=
TTITLE0=Where Do You Go
TTITLE1=Kiss You All Over
TTITLE2=Don´t Make Me Live Without You
TTITLE3=When I Die
TTITLE4=Please Don´t Go
TTITLE5=Bonita
TTITLE6=My Promise To You
TTITLE7=D´Yer Mak R
TTITLE8=Missing
TTITLE9=This Mascarade
TTITLE10=In And Out
TTITLE11=Who Do You Love
TTITLE12=How Much I Love You
TTITLE13=Part Of Me
TTITLE14=Where Do You Go (Trip House Mix)
TTITLE15=Where Do You Go (Spanish Version)
TTITLE16=Please Don´t Go (Spanish Version)
TTITLE17=When I Die (Spanish Version)
EXTD=
EXTT0=
EXTT1=
EXTT2=
EXTT3=
EXTT4=
EXTT5=
EXTT6=
EXTT7=
EXTT8=
EXTT9=
EXTT10=
EXTT11=
EXTT12=
EXTT13=
EXTT14=
EXTT15=
EXTT16=
EXTT17=
PLAYORDER=
